<mxfile host="app.diagrams.net" modified="2022-04-07T02:07:17.260Z" agent="5.0 (Windows NT 10.0; Win64; x64) AppleWebKit/537.36 (KHTML, like Gecko) Chrome/100.0.4896.75 Safari/537.36" etag="1tuM-IzOLdkvwsNUn19J" version="17.4.0" type="github" pages="8">
  <diagram id="XShnWtYQ7oAVOlDhn3G4" name="01 - setup">
    <mxGraphModel dx="973" dy="840" grid="1" gridSize="10" guides="1" tooltips="1" connect="1" arrows="1" fold="1" page="1" pageScale="1" pageWidth="850" pageHeight="1100" math="0" shadow="0">
      <root>
        <mxCell id="0" />
        <mxCell id="1" parent="0" />
        <mxCell id="MmbHOLliNbih18fSS2hp-2" value="app" style="shape=cube;whiteSpace=wrap;html=1;boundedLbl=1;backgroundOutline=1;darkOpacity=0.05;darkOpacity2=0.1;" vertex="1" parent="1">
          <mxGeometry x="332" y="772.5" width="200" height="137.5" as="geometry" />
        </mxCell>
        <mxCell id="xd2lTGrbQmmwqUSYdJqW-1" value="install react native cli to init a project" style="rounded=1;whiteSpace=wrap;html=1;" vertex="1" parent="1">
          <mxGeometry x="230" y="190" width="120" height="60" as="geometry" />
        </mxCell>
        <mxCell id="xd2lTGrbQmmwqUSYdJqW-2" value="npm install -g expo-cli" style="text;html=1;strokeColor=none;fillColor=none;align=center;verticalAlign=middle;whiteSpace=wrap;rounded=0;" vertex="1" parent="1">
          <mxGeometry x="430" y="180" width="160" height="20" as="geometry" />
        </mxCell>
        <mxCell id="xd2lTGrbQmmwqUSYdJqW-3" value="npx run install -g expo-cli" style="text;html=1;strokeColor=none;fillColor=none;align=center;verticalAlign=middle;whiteSpace=wrap;rounded=0;" vertex="1" parent="1">
          <mxGeometry x="420" y="230" width="160" height="20" as="geometry" />
        </mxCell>
        <mxCell id="xd2lTGrbQmmwqUSYdJqW-4" value="or install locally?" style="text;html=1;strokeColor=none;fillColor=none;align=center;verticalAlign=middle;whiteSpace=wrap;rounded=0;" vertex="1" parent="1">
          <mxGeometry x="470" y="200" width="100" height="30" as="geometry" />
        </mxCell>
        <mxCell id="xd2lTGrbQmmwqUSYdJqW-5" value="expo init ." style="rounded=1;whiteSpace=wrap;html=1;" vertex="1" parent="1">
          <mxGeometry x="325" y="310" width="120" height="60" as="geometry" />
        </mxCell>
        <mxCell id="xd2lTGrbQmmwqUSYdJqW-7" value="git clone Mber to local" style="rounded=1;whiteSpace=wrap;html=1;" vertex="1" parent="1">
          <mxGeometry x="160" y="310" width="120" height="60" as="geometry" />
        </mxCell>
        <mxCell id="xd2lTGrbQmmwqUSYdJqW-8" value="use expo cli instead of react native cli" style="text;html=1;strokeColor=none;fillColor=none;align=center;verticalAlign=middle;whiteSpace=wrap;rounded=0;" vertex="1" parent="1">
          <mxGeometry x="630" y="190" width="130" height="20" as="geometry" />
        </mxCell>
        <mxCell id="We2Jfy-92jqyswQWCvW1-1" value="google redux toolkit to see how to setup redux" style="text;html=1;strokeColor=none;fillColor=none;align=center;verticalAlign=middle;whiteSpace=wrap;rounded=0;" vertex="1" parent="1">
          <mxGeometry x="158" y="460" width="265" height="70" as="geometry" />
        </mxCell>
        <mxCell id="We2Jfy-92jqyswQWCvW1-2" value="&lt;span style=&quot;color: rgb(119 , 128 , 144) ; font-size: 16.15px ; background-color: rgb(39 , 40 , 34)&quot;&gt;Redux + Plain JS template&lt;/span&gt;" style="rounded=1;whiteSpace=wrap;html=1;" vertex="1" parent="1">
          <mxGeometry x="168" y="540" width="210" height="50" as="geometry" />
        </mxCell>
        <mxCell id="We2Jfy-92jqyswQWCvW1-3" value="&lt;h3 class=&quot;anchor anchorWithStickyNavbar_23Bc&quot; id=&quot;an-existing-app&quot; style=&quot;box-sizing: border-box ; color: rgb(28 , 30 , 33) ; font-family: , , &amp;quot;segoe ui&amp;quot; , &amp;quot;roboto&amp;quot; , &amp;quot;ubuntu&amp;quot; , &amp;quot;cantarell&amp;quot; , &amp;quot;noto sans&amp;quot; , sans-serif , &amp;quot;blinkmacsystemfont&amp;quot; , &amp;quot;segoe ui&amp;quot; , &amp;quot;helvetica&amp;quot; , &amp;quot;arial&amp;quot; , sans-serif , &amp;quot;apple color emoji&amp;quot; , &amp;quot;segoe ui emoji&amp;quot; , &amp;quot;segoe ui symbol&amp;quot;&quot;&gt;An Existing App&lt;a class=&quot;hash-link&quot; href=&quot;https://redux-toolkit.js.org/introduction/getting-started#an-existing-app&quot; title=&quot;Direct link to heading&quot; style=&quot;box-sizing: border-box ; opacity: 1 ; padding-left: 0.5rem&quot;&gt;â€‹&lt;/a&gt;&lt;/h3&gt;&lt;div&gt;&lt;br&gt;&lt;/div&gt;" style="rounded=1;whiteSpace=wrap;html=1;" vertex="1" parent="1">
          <mxGeometry x="168" y="620" width="130" height="40" as="geometry" />
        </mxCell>
        <mxCell id="We2Jfy-92jqyswQWCvW1-4" value="&lt;span style=&quot;color: rgb(0, 0, 0); font-family: helvetica; font-size: 12px; font-style: normal; font-weight: 400; letter-spacing: normal; text-align: center; text-indent: 0px; text-transform: none; word-spacing: 0px; background-color: rgb(248, 249, 250); display: inline; float: none;&quot;&gt;npx create-react-app my-app --template redux&lt;/span&gt;" style="text;whiteSpace=wrap;html=1;" vertex="1" parent="1">
          <mxGeometry x="423" y="550" width="270" height="30" as="geometry" />
        </mxCell>
        <mxCell id="We2Jfy-92jqyswQWCvW1-5" value="npm install @redux/toolkit" style="text;html=1;align=center;verticalAlign=middle;resizable=0;points=[];autosize=1;strokeColor=none;fillColor=none;" vertex="1" parent="1">
          <mxGeometry x="418" y="630" width="150" height="20" as="geometry" />
        </mxCell>
        <mxCell id="We2Jfy-92jqyswQWCvW1-7" value="1. init the project" style="text;html=1;strokeColor=none;fillColor=none;align=center;verticalAlign=middle;whiteSpace=wrap;rounded=0;" vertex="1" parent="1">
          <mxGeometry x="140" y="100" width="120" height="30" as="geometry" />
        </mxCell>
        <mxCell id="We2Jfy-92jqyswQWCvW1-8" value="2. setup redux" style="text;html=1;strokeColor=none;fillColor=none;align=center;verticalAlign=middle;whiteSpace=wrap;rounded=0;" vertex="1" parent="1">
          <mxGeometry x="150" y="420" width="120" height="30" as="geometry" />
        </mxCell>
        <mxCell id="MmbHOLliNbih18fSS2hp-1" value="data layer" style="shape=dataStorage;whiteSpace=wrap;html=1;fixedSize=1;" vertex="1" parent="1">
          <mxGeometry x="270" y="740" width="180" height="90" as="geometry" />
        </mxCell>
        <mxCell id="MmbHOLliNbih18fSS2hp-3" value="" style="curved=1;endArrow=classic;html=1;rounded=0;entryX=0.809;entryY=0.003;entryDx=0;entryDy=0;entryPerimeter=0;exitX=0;exitY=0;exitDx=110;exitDy=10;exitPerimeter=0;" edge="1" parent="1" source="MmbHOLliNbih18fSS2hp-2" target="MmbHOLliNbih18fSS2hp-1">
          <mxGeometry width="50" height="50" relative="1" as="geometry">
            <mxPoint x="512" y="690" as="sourcePoint" />
            <mxPoint x="562" y="640" as="targetPoint" />
            <Array as="points">
              <mxPoint x="612" y="780" />
            </Array>
          </mxGeometry>
        </mxCell>
      </root>
    </mxGraphModel>
  </diagram>
  <diagram id="NDyoeVyVn_14vL9NG6AW" name="02 - provider">
    <mxGraphModel dx="973" dy="840" grid="1" gridSize="10" guides="1" tooltips="1" connect="1" arrows="1" fold="1" page="1" pageScale="1" pageWidth="850" pageHeight="1100" math="0" shadow="0">
      <root>
        <mxCell id="0" />
        <mxCell id="1" parent="0" />
        <mxCell id="cucsvPZdoMLhPSFIW29F-1" value="provider injects or wrap our app so our app can have redux inside it" style="text;html=1;strokeColor=none;fillColor=none;align=center;verticalAlign=middle;whiteSpace=wrap;rounded=0;" vertex="1" parent="1">
          <mxGeometry x="320" y="160" width="250" height="90" as="geometry" />
        </mxCell>
        <mxCell id="cucsvPZdoMLhPSFIW29F-3" value="import {Provider} from &quot;react-redux&#39;" style="text;html=1;strokeColor=none;fillColor=none;align=center;verticalAlign=middle;whiteSpace=wrap;rounded=0;" vertex="1" parent="1">
          <mxGeometry x="320" y="270" width="230" height="40" as="geometry" />
        </mxCell>
        <mxCell id="cucsvPZdoMLhPSFIW29F-8" value="" style="edgeStyle=orthogonalEdgeStyle;rounded=0;orthogonalLoop=1;jettySize=auto;html=1;" edge="1" parent="1" source="cucsvPZdoMLhPSFIW29F-6" target="cucsvPZdoMLhPSFIW29F-7">
          <mxGeometry relative="1" as="geometry" />
        </mxCell>
        <mxCell id="cucsvPZdoMLhPSFIW29F-6" value="import" style="rounded=1;whiteSpace=wrap;html=1;" vertex="1" parent="1">
          <mxGeometry x="190" y="260" width="120" height="60" as="geometry" />
        </mxCell>
        <mxCell id="cucsvPZdoMLhPSFIW29F-7" value="use" style="rounded=1;whiteSpace=wrap;html=1;" vertex="1" parent="1">
          <mxGeometry x="190" y="400" width="120" height="60" as="geometry" />
        </mxCell>
        <mxCell id="cucsvPZdoMLhPSFIW29F-9" value="&amp;lt;Provider store={store}&amp;gt;&lt;br&gt;&amp;lt;View&amp;gt;...&amp;lt;/View&amp;gt;&lt;br&gt;&amp;lt;/Provider&amp;gt;" style="text;html=1;strokeColor=none;fillColor=none;align=center;verticalAlign=middle;whiteSpace=wrap;rounded=0;" vertex="1" parent="1">
          <mxGeometry x="350" y="400" width="220" height="60" as="geometry" />
        </mxCell>
        <mxCell id="4xjcyjwSm1OfF5_yp_jG-1" value="To make the data layer wrapps around the app, we need a Provider" style="text;html=1;strokeColor=none;fillColor=none;align=center;verticalAlign=middle;whiteSpace=wrap;rounded=0;" vertex="1" parent="1">
          <mxGeometry x="200" y="120" width="380" height="40" as="geometry" />
        </mxCell>
        <mxCell id="WPWdWX_wpaW4QkoS_QPC-1" value="app" style="shape=cube;whiteSpace=wrap;html=1;boundedLbl=1;backgroundOutline=1;darkOpacity=0.05;darkOpacity2=0.1;" vertex="1" parent="1">
          <mxGeometry x="342" y="552.5" width="200" height="137.5" as="geometry" />
        </mxCell>
        <mxCell id="WPWdWX_wpaW4QkoS_QPC-2" value="data layer" style="shape=dataStorage;whiteSpace=wrap;html=1;fixedSize=1;" vertex="1" parent="1">
          <mxGeometry x="280" y="520" width="180" height="90" as="geometry" />
        </mxCell>
        <mxCell id="WPWdWX_wpaW4QkoS_QPC-3" value="" style="curved=1;endArrow=classic;html=1;rounded=0;entryX=0.809;entryY=0.003;entryDx=0;entryDy=0;entryPerimeter=0;exitX=0;exitY=0;exitDx=110;exitDy=10;exitPerimeter=0;" edge="1" parent="1" source="WPWdWX_wpaW4QkoS_QPC-1" target="WPWdWX_wpaW4QkoS_QPC-2">
          <mxGeometry width="50" height="50" relative="1" as="geometry">
            <mxPoint x="522" y="470" as="sourcePoint" />
            <mxPoint x="572" y="420" as="targetPoint" />
            <Array as="points">
              <mxPoint x="622" y="560" />
            </Array>
          </mxGeometry>
        </mxCell>
      </root>
    </mxGraphModel>
  </diagram>
  <diagram id="a_UdTXSr25GElPe1-ZvR" name="03 - redux">
    <mxGraphModel dx="973" dy="840" grid="1" gridSize="10" guides="1" tooltips="1" connect="1" arrows="1" fold="1" page="1" pageScale="1" pageWidth="850" pageHeight="1100" math="0" shadow="0">
      <root>
        <mxCell id="0" />
        <mxCell id="1" parent="0" />
        <mxCell id="mHAhnvCXnZvMpo4mNQ-d-8" value="Redux" style="shape=cube;whiteSpace=wrap;html=1;boundedLbl=1;backgroundOutline=1;darkOpacity=0.05;darkOpacity2=0.1;" vertex="1" parent="1">
          <mxGeometry x="170" y="200" width="460" height="330" as="geometry" />
        </mxCell>
        <mxCell id="mHAhnvCXnZvMpo4mNQ-d-3" value="store.js" style="strokeWidth=2;html=1;shape=mxgraph.flowchart.document2;whiteSpace=wrap;size=0.25;" vertex="1" parent="1">
          <mxGeometry x="222.5" y="270" width="100" height="60" as="geometry" />
        </mxCell>
        <mxCell id="mHAhnvCXnZvMpo4mNQ-d-4" value="where we configure redux by defining store" style="text;html=1;strokeColor=none;fillColor=none;align=center;verticalAlign=middle;whiteSpace=wrap;rounded=0;" vertex="1" parent="1">
          <mxGeometry x="370" y="273" width="100" height="35" as="geometry" />
        </mxCell>
        <mxCell id="mHAhnvCXnZvMpo4mNQ-d-6" value="" style="sketch=0;pointerEvents=1;shadow=0;dashed=0;html=1;strokeColor=none;fillColor=#434445;aspect=fixed;labelPosition=center;verticalLabelPosition=bottom;verticalAlign=top;align=center;outlineConnect=0;shape=mxgraph.vvd.folder;" vertex="1" parent="1">
          <mxGeometry x="207.38" y="370" width="197.36" height="150" as="geometry" />
        </mxCell>
        <mxCell id="mHAhnvCXnZvMpo4mNQ-d-7" value="folder called slices &lt;br&gt;where all data slices&lt;br&gt;are stored" style="text;html=1;align=center;verticalAlign=middle;resizable=0;points=[];autosize=1;strokeColor=none;fillColor=none;" vertex="1" parent="1">
          <mxGeometry x="445" y="430" width="120" height="50" as="geometry" />
        </mxCell>
        <mxCell id="0LUWpiVRvB89P9eJzjNf-1" value="navSlice.js" style="strokeWidth=2;html=1;shape=mxgraph.flowchart.document2;whiteSpace=wrap;size=0.25;" vertex="1" parent="1">
          <mxGeometry x="250" y="450" width="60" height="30" as="geometry" />
        </mxCell>
        <mxCell id="MPGasxTyGBdpURMLFiad-1" value="navSlice.js" style="strokeWidth=2;html=1;shape=mxgraph.flowchart.document2;whiteSpace=wrap;size=0.25;" vertex="1" parent="1">
          <mxGeometry x="330" y="430" width="60" height="30" as="geometry" />
        </mxCell>
        <mxCell id="4qXTFToLz-2qirBWSBgW-1" value="Redux is a data layer that wraps around the app so the app can pull the data from the data layer or push data to the data layer&amp;nbsp;" style="text;html=1;strokeColor=none;fillColor=none;align=center;verticalAlign=middle;whiteSpace=wrap;rounded=0;" vertex="1" parent="1">
          <mxGeometry x="180" y="110" width="400" height="70" as="geometry" />
        </mxCell>
      </root>
    </mxGraphModel>
  </diagram>
  <diagram id="Ewt5Jf0zzYfeXPRNxt0G" name="04 - store">
    <mxGraphModel dx="973" dy="840" grid="1" gridSize="10" guides="1" tooltips="1" connect="1" arrows="1" fold="1" page="1" pageScale="1" pageWidth="850" pageHeight="1100" math="0" shadow="0">
      <root>
        <mxCell id="0" />
        <mxCell id="1" parent="0" />
        <mxCell id="C-CcnotezF_LoOzT90Lw-4" value="" style="edgeStyle=orthogonalEdgeStyle;rounded=0;orthogonalLoop=1;jettySize=auto;html=1;" edge="1" parent="1" source="oxhCGi7NL77srER-djq6-1" target="C-CcnotezF_LoOzT90Lw-3">
          <mxGeometry relative="1" as="geometry" />
        </mxCell>
        <mxCell id="oxhCGi7NL77srER-djq6-1" value="create store with configureStore(Obj) method" style="rounded=1;whiteSpace=wrap;html=1;" vertex="1" parent="1">
          <mxGeometry x="220" y="150" width="190" height="70" as="geometry" />
        </mxCell>
        <mxCell id="C-CcnotezF_LoOzT90Lw-1" value="import {configureStore} from &quot;@reduxjs/toolkit&quot;" style="text;html=1;strokeColor=none;fillColor=none;align=center;verticalAlign=middle;whiteSpace=wrap;rounded=0;" vertex="1" parent="1">
          <mxGeometry x="470" y="170" width="290" height="30" as="geometry" />
        </mxCell>
        <mxCell id="C-CcnotezF_LoOzT90Lw-2" value="&lt;p style=&quot;margin: 0px ; margin-top: 4px ; text-align: center ; text-decoration: underline&quot;&gt;&lt;b&gt;Obj&lt;/b&gt;&lt;/p&gt;&lt;hr&gt;&lt;p style=&quot;margin: 0px ; margin-left: 8px&quot;&gt;reducer: Obj containing all reducers for different data slices&lt;br&gt;&lt;/p&gt;" style="verticalAlign=top;align=left;overflow=fill;fontSize=12;fontFamily=Helvetica;html=1;" vertex="1" parent="1">
          <mxGeometry x="150" y="400" width="370" height="70" as="geometry" />
        </mxCell>
        <mxCell id="C-CcnotezF_LoOzT90Lw-3" value="export store" style="rounded=1;whiteSpace=wrap;html=1;" vertex="1" parent="1">
          <mxGeometry x="220" y="260" width="190" height="70" as="geometry" />
        </mxCell>
        <mxCell id="C-CcnotezF_LoOzT90Lw-5" value="export const store = configureStore(Obj)" style="text;html=1;strokeColor=none;fillColor=none;align=center;verticalAlign=middle;whiteSpace=wrap;rounded=0;" vertex="1" parent="1">
          <mxGeometry x="470" y="270" width="290" height="30" as="geometry" />
        </mxCell>
        <mxCell id="C-CcnotezF_LoOzT90Lw-6" value="Obj specify all the reducers for all data slices" style="text;html=1;strokeColor=none;fillColor=none;align=center;verticalAlign=middle;whiteSpace=wrap;rounded=0;" vertex="1" parent="1">
          <mxGeometry x="570" y="405" width="160" height="60" as="geometry" />
        </mxCell>
      </root>
    </mxGraphModel>
  </diagram>
  <diagram id="K00rzrhA-75TAfQ9929S" name="05 - data slice">
    <mxGraphModel dx="973" dy="840" grid="1" gridSize="10" guides="1" tooltips="1" connect="1" arrows="1" fold="1" page="1" pageScale="1" pageWidth="850" pageHeight="1100" math="0" shadow="0">
      <root>
        <mxCell id="0" />
        <mxCell id="1" parent="0" />
        <mxCell id="my5SAaS9EgKE8tLteR-O-5" value="data have different states since they can change? so we need to initiate data with initialState" style="text;html=1;strokeColor=none;fillColor=none;align=center;verticalAlign=middle;whiteSpace=wrap;rounded=0;" vertex="1" parent="1">
          <mxGeometry x="470" y="250" width="170" height="80" as="geometry" />
        </mxCell>
        <mxCell id="my5SAaS9EgKE8tLteR-O-9" value="reducers are dispatch actions which perfom some data manipulations when some events trigger(ex. UI changes or user events)" style="text;html=1;strokeColor=none;fillColor=none;align=center;verticalAlign=middle;whiteSpace=wrap;rounded=0;" vertex="1" parent="1">
          <mxGeometry x="450" y="350" width="260" height="80" as="geometry" />
        </mxCell>
        <mxCell id="my5SAaS9EgKE8tLteR-O-14" value="" style="edgeStyle=orthogonalEdgeStyle;rounded=0;orthogonalLoop=1;jettySize=auto;html=1;" edge="1" parent="1" source="my5SAaS9EgKE8tLteR-O-10" target="my5SAaS9EgKE8tLteR-O-13">
          <mxGeometry relative="1" as="geometry" />
        </mxCell>
        <mxCell id="my5SAaS9EgKE8tLteR-O-10" value="&lt;span&gt;create data slice&lt;/span&gt;" style="rounded=1;whiteSpace=wrap;html=1;" vertex="1" parent="1">
          <mxGeometry x="277.5" y="160" width="120" height="60" as="geometry" />
        </mxCell>
        <mxCell id="my5SAaS9EgKE8tLteR-O-16" value="" style="edgeStyle=orthogonalEdgeStyle;rounded=0;orthogonalLoop=1;jettySize=auto;html=1;" edge="1" parent="1" source="my5SAaS9EgKE8tLteR-O-13" target="my5SAaS9EgKE8tLteR-O-15">
          <mxGeometry relative="1" as="geometry" />
        </mxCell>
        <mxCell id="my5SAaS9EgKE8tLteR-O-13" value="define initialState of data" style="rounded=1;whiteSpace=wrap;html=1;" vertex="1" parent="1">
          <mxGeometry x="260" y="260" width="155" height="60" as="geometry" />
        </mxCell>
        <mxCell id="my5SAaS9EgKE8tLteR-O-18" value="" style="edgeStyle=orthogonalEdgeStyle;rounded=0;orthogonalLoop=1;jettySize=auto;html=1;" edge="1" parent="1" source="my5SAaS9EgKE8tLteR-O-15" target="my5SAaS9EgKE8tLteR-O-17">
          <mxGeometry relative="1" as="geometry" />
        </mxCell>
        <mxCell id="my5SAaS9EgKE8tLteR-O-15" value="define reducers" style="rounded=1;whiteSpace=wrap;html=1;" vertex="1" parent="1">
          <mxGeometry x="260" y="360" width="155" height="60" as="geometry" />
        </mxCell>
        <mxCell id="my5SAaS9EgKE8tLteR-O-17" value="expose the data by export&amp;nbsp;" style="rounded=1;whiteSpace=wrap;html=1;" vertex="1" parent="1">
          <mxGeometry x="260" y="470" width="155" height="60" as="geometry" />
        </mxCell>
        <mxCell id="5YfFq01vXlQVfvOehPkU-5" value="&lt;p style=&quot;margin: 0px ; margin-top: 4px ; text-align: center ; text-decoration: underline&quot;&gt;&lt;b&gt;Object passed to createSlice(Obj)&lt;/b&gt;&lt;/p&gt;&lt;hr&gt;&lt;p style=&quot;margin: 0px ; margin-left: 8px&quot;&gt;name: String&lt;/p&gt;&lt;p style=&quot;margin: 0px ; margin-left: 8px&quot;&gt;initialState: obj&lt;/p&gt;&lt;p style=&quot;margin: 0px ; margin-left: 8px&quot;&gt;reducers: obj containing dispatch fns&lt;/p&gt;" style="verticalAlign=top;align=left;overflow=fill;fontSize=12;fontFamily=Helvetica;html=1;" vertex="1" parent="1">
          <mxGeometry x="250" y="590" width="220" height="100" as="geometry" />
        </mxCell>
        <mxCell id="5YfFq01vXlQVfvOehPkU-6" value="import {createSlice} from &quot;@reduxjs/toolkit&quot;" style="text;html=1;strokeColor=none;fillColor=none;align=center;verticalAlign=middle;whiteSpace=wrap;rounded=0;" vertex="1" parent="1">
          <mxGeometry x="465" y="160" width="180" height="50" as="geometry" />
        </mxCell>
        <mxCell id="5YfFq01vXlQVfvOehPkU-7" value="createSlice(Obj)" style="text;html=1;strokeColor=none;fillColor=none;align=center;verticalAlign=middle;whiteSpace=wrap;rounded=0;" vertex="1" parent="1">
          <mxGeometry x="680" y="170" width="130" height="30" as="geometry" />
        </mxCell>
        <mxCell id="LLE9-OjRk6InunQeTzBH-1" value="&lt;p style=&quot;margin: 0px ; margin-top: 4px ; text-align: center ; text-decoration: underline&quot;&gt;&lt;b&gt;initialState&lt;/b&gt;&lt;/p&gt;&lt;hr&gt;&lt;p style=&quot;margin: 0px ; margin-left: 8px&quot;&gt;origin: null&lt;/p&gt;&lt;p style=&quot;margin: 0px ; margin-left: 8px&quot;&gt;destination: null&lt;/p&gt;&lt;p style=&quot;margin: 0px ; margin-left: 8px&quot;&gt;travelTimeInfo: null&lt;/p&gt;" style="verticalAlign=top;align=left;overflow=fill;fontSize=12;fontFamily=Helvetica;html=1;" vertex="1" parent="1">
          <mxGeometry x="530" y="590" width="140" height="90" as="geometry" />
        </mxCell>
      </root>
    </mxGraphModel>
  </diagram>
  <diagram id="2_uc0o4sLMKBEgM0J7Lh" name="06 - reducer">
    <mxGraphModel dx="973" dy="840" grid="1" gridSize="10" guides="1" tooltips="1" connect="1" arrows="1" fold="1" page="1" pageScale="1" pageWidth="850" pageHeight="1100" math="0" shadow="0">
      <root>
        <mxCell id="0" />
        <mxCell id="1" parent="0" />
        <mxCell id="DVEigJeCClA8I4dmg4AW-4" value="&lt;p style=&quot;margin: 0px ; margin-top: 4px ; text-align: center ; text-decoration: underline&quot;&gt;&lt;b&gt;reducer&lt;/b&gt;&lt;/p&gt;&lt;hr&gt;&lt;p style=&quot;margin: 0px ; margin-left: 8px&quot;&gt;setOrigin = (state, action)=&amp;gt;{state.origin = action.playload}&lt;br&gt;setDestination = (state, action)=&amp;gt;{state.destination&amp;nbsp;= destination.playload}&lt;/p&gt;&lt;p style=&quot;margin: 0px ; margin-left: 8px&quot;&gt;setTravelTimeInfo = (state, action)=&amp;gt;{state.travelTimeInfo&amp;nbsp;= travelTimeInfo.playload}&lt;br&gt;&lt;/p&gt;" style="verticalAlign=top;align=left;overflow=fill;fontSize=12;fontFamily=Helvetica;html=1;" vertex="1" parent="1">
          <mxGeometry x="150" y="170" width="500" height="100" as="geometry" />
        </mxCell>
        <mxCell id="uCgnDg0jeznlBMHwotXh-1" value="push data from the app to the data layer" style="text;html=1;strokeColor=none;fillColor=none;align=center;verticalAlign=middle;whiteSpace=wrap;rounded=0;" vertex="1" parent="1">
          <mxGeometry x="425" y="290" width="110" height="35" as="geometry" />
        </mxCell>
        <mxCell id="hB04QdTZOPV1-ZlvLQuf-1" value="app" style="shape=cube;whiteSpace=wrap;html=1;boundedLbl=1;backgroundOutline=1;darkOpacity=0.05;darkOpacity2=0.1;" vertex="1" parent="1">
          <mxGeometry x="312" y="362.5" width="200" height="137.5" as="geometry" />
        </mxCell>
        <mxCell id="hB04QdTZOPV1-ZlvLQuf-2" value="data layer" style="shape=dataStorage;whiteSpace=wrap;html=1;fixedSize=1;" vertex="1" parent="1">
          <mxGeometry x="250" y="330" width="180" height="90" as="geometry" />
        </mxCell>
        <mxCell id="hB04QdTZOPV1-ZlvLQuf-3" value="" style="curved=1;endArrow=classic;html=1;rounded=0;entryX=0.809;entryY=0.003;entryDx=0;entryDy=0;entryPerimeter=0;exitX=0;exitY=0;exitDx=110;exitDy=10;exitPerimeter=0;" edge="1" parent="1" source="hB04QdTZOPV1-ZlvLQuf-1" target="hB04QdTZOPV1-ZlvLQuf-2">
          <mxGeometry width="50" height="50" relative="1" as="geometry">
            <mxPoint x="492" y="280" as="sourcePoint" />
            <mxPoint x="542" y="230" as="targetPoint" />
            <Array as="points">
              <mxPoint x="592" y="370" />
            </Array>
          </mxGeometry>
        </mxCell>
      </root>
    </mxGraphModel>
  </diagram>
  <diagram id="hPnHMG80YFEr3WLFPNxi" name="07 - selectors">
    <mxGraphModel dx="973" dy="840" grid="1" gridSize="10" guides="1" tooltips="1" connect="1" arrows="1" fold="1" page="1" pageScale="1" pageWidth="850" pageHeight="1100" math="0" shadow="0">
      <root>
        <mxCell id="0" />
        <mxCell id="1" parent="0" />
        <mxCell id="x2hNYa1csf7YR9T-_TOE-2" value="&lt;p style=&quot;margin: 0px ; margin-top: 4px ; text-align: center ; text-decoration: underline&quot;&gt;&lt;b&gt;selectors&lt;/b&gt;&lt;/p&gt;&lt;hr&gt;&lt;p style=&quot;margin: 0px ; margin-left: 8px&quot;&gt;selectOrigin = (state)=&amp;gt;state.nav.origin&lt;br&gt;selectDestination = (state)=&amp;gt;state.nav.destination&amp;nbsp;&lt;/p&gt;&amp;nbsp; select&lt;span&gt;TravelTimeInfo = (state)=&amp;gt;state.nav.travelTimeInfo&amp;nbsp;&lt;/span&gt;" style="verticalAlign=top;align=left;overflow=fill;fontSize=12;fontFamily=Helvetica;html=1;" vertex="1" parent="1">
          <mxGeometry x="200" y="180" width="310" height="80" as="geometry" />
        </mxCell>
        <mxCell id="x2hNYa1csf7YR9T-_TOE-3" value="app grabs data from the data layer" style="text;html=1;strokeColor=none;fillColor=none;align=center;verticalAlign=middle;whiteSpace=wrap;rounded=0;" vertex="1" parent="1">
          <mxGeometry x="425" y="290" width="110" height="35" as="geometry" />
        </mxCell>
        <mxCell id="OeQ20UY17-9ERZNIbXch-1" value="app" style="shape=cube;whiteSpace=wrap;html=1;boundedLbl=1;backgroundOutline=1;darkOpacity=0.05;darkOpacity2=0.1;" vertex="1" parent="1">
          <mxGeometry x="316" y="372.5" width="200" height="137.5" as="geometry" />
        </mxCell>
        <mxCell id="OeQ20UY17-9ERZNIbXch-2" value="data layer" style="shape=dataStorage;whiteSpace=wrap;html=1;fixedSize=1;" vertex="1" parent="1">
          <mxGeometry x="254" y="340" width="180" height="90" as="geometry" />
        </mxCell>
        <mxCell id="OhEzIRjroHGjEH59wGx3-1" value="" style="curved=1;endArrow=classic;html=1;rounded=0;entryX=0;entryY=0;entryDx=180;entryDy=0;entryPerimeter=0;" edge="1" parent="1" target="OeQ20UY17-9ERZNIbXch-1">
          <mxGeometry width="50" height="50" relative="1" as="geometry">
            <mxPoint x="420" y="350" as="sourcePoint" />
            <mxPoint x="470" y="300" as="targetPoint" />
            <Array as="points">
              <mxPoint x="470" y="350" />
              <mxPoint x="490" y="360" />
            </Array>
          </mxGeometry>
        </mxCell>
      </root>
    </mxGraphModel>
  </diagram>
  <diagram id="jbcxzwFcqtMenORnEaz6" name="08 - expose data">
    <mxGraphModel dx="973" dy="840" grid="1" gridSize="10" guides="1" tooltips="1" connect="1" arrows="1" fold="1" page="1" pageScale="1" pageWidth="850" pageHeight="1100" math="0" shadow="0">
      <root>
        <mxCell id="0" />
        <mxCell id="1" parent="0" />
        <mxCell id="OwZvRxbSqGK5SbNP9-SY-1" value="export const {setOrigin, setDestination,setTimeTravelInfo} = navSlice.actions&lt;br&gt;..." style="text;html=1;strokeColor=none;fillColor=none;align=center;verticalAlign=middle;whiteSpace=wrap;rounded=0;" vertex="1" parent="1">
          <mxGeometry x="380" y="170" width="450" height="60" as="geometry" />
        </mxCell>
        <mxCell id="vAtJX6emAIhhy0ZUpL8_-3" value="" style="edgeStyle=orthogonalEdgeStyle;rounded=0;orthogonalLoop=1;jettySize=auto;html=1;" edge="1" parent="1" source="vAtJX6emAIhhy0ZUpL8_-1" target="vAtJX6emAIhhy0ZUpL8_-2">
          <mxGeometry relative="1" as="geometry" />
        </mxCell>
        <mxCell id="vAtJX6emAIhhy0ZUpL8_-1" value="export actions" style="rounded=1;whiteSpace=wrap;html=1;" vertex="1" parent="1">
          <mxGeometry x="230" y="170" width="120" height="60" as="geometry" />
        </mxCell>
        <mxCell id="vAtJX6emAIhhy0ZUpL8_-5" value="" style="edgeStyle=orthogonalEdgeStyle;rounded=0;orthogonalLoop=1;jettySize=auto;html=1;" edge="1" parent="1" source="vAtJX6emAIhhy0ZUpL8_-2" target="vAtJX6emAIhhy0ZUpL8_-4">
          <mxGeometry relative="1" as="geometry" />
        </mxCell>
        <mxCell id="vAtJX6emAIhhy0ZUpL8_-2" value="export selectors" style="rounded=1;whiteSpace=wrap;html=1;" vertex="1" parent="1">
          <mxGeometry x="230" y="280" width="120" height="60" as="geometry" />
        </mxCell>
        <mxCell id="vAtJX6emAIhhy0ZUpL8_-4" value="export reducer" style="rounded=1;whiteSpace=wrap;html=1;" vertex="1" parent="1">
          <mxGeometry x="230" y="390" width="120" height="60" as="geometry" />
        </mxCell>
        <mxCell id="0ePuVrvOnzNkVCktwk4x-1" value="export const selectOrigin = (state) =&amp;gt; state.nav.origin&lt;br&gt;..." style="text;html=1;strokeColor=none;fillColor=none;align=center;verticalAlign=middle;whiteSpace=wrap;rounded=0;" vertex="1" parent="1">
          <mxGeometry x="400" y="280" width="320" height="60" as="geometry" />
        </mxCell>
        <mxCell id="0ePuVrvOnzNkVCktwk4x-2" value="export default navSlice.reducer" style="text;html=1;strokeColor=none;fillColor=none;align=center;verticalAlign=middle;whiteSpace=wrap;rounded=0;" vertex="1" parent="1">
          <mxGeometry x="420" y="405" width="175" height="30" as="geometry" />
        </mxCell>
      </root>
    </mxGraphModel>
  </diagram>
</mxfile>
